<svg width="76" height="22" viewBox="0 0 76 22" fill="none" xmlns="http://www.w3.org/2000/svg">
<mask id="path-1-outside-1_15_51" maskUnits="userSpaceOnUse" x="0.111084" y="0" width="76" height="22" fill="black">
<rect fill="white" x="0.111084" width="76" height="22"/>
<path d="M11.1111 22C11.1111 15.9249 16.036 11 22.1111 11H53.8889C59.964 11 64.8889 15.9249 64.8889 22H11.1111Z"/>
</mask>
<path d="M11.1111 22C11.1111 15.9249 16.036 11 22.1111 11H53.8889C59.964 11 64.8889 15.9249 64.8889 22H11.1111Z" fill="#545050"/>
<path d="M0.111084 22C0.111084 9.84974 9.96082 0 22.1111 0H53.8889C66.0391 0 75.8889 9.84974 75.8889 22H53.8889H22.1111H0.111084ZM64.8889 22H11.1111H64.8889ZM0.111084 22C0.111084 9.84974 9.96082 0 22.1111 0V22H0.111084ZM53.8889 0C66.0391 0 75.8889 9.84974 75.8889 22H53.8889V0Z" fill="black" mask="url(#path-1-outside-1_15_51)"/>
</svg>
