<svg width="56" height="56" viewBox="0 0 56 56" fill="none" xmlns="http://www.w3.org/2000/svg">
<mask id="path-1-inside-1_16_127" fill="white">
<path d="M53.9704 18.8842C58.9396 33.2361 51.3335 48.8989 36.9816 53.8682C22.6297 58.8374 6.9668 51.2312 1.99758 36.8793C-0.946102 28.3775 0.523128 19.4157 5.19342 12.4893C8.40705 7.7232 13.1363 3.92088 18.9864 1.89534C33.3383 -3.07389 49.0012 4.53227 53.9704 18.8842Z"/>
</mask>
<path d="M53.9704 18.8842C58.9396 33.2361 51.3335 48.8989 36.9816 53.8682C22.6297 58.8374 6.9668 51.2312 1.99758 36.8793C-0.946102 28.3775 0.523128 19.4157 5.19342 12.4893C8.40705 7.7232 13.1363 3.92088 18.9864 1.89534C33.3383 -3.07389 49.0012 4.53227 53.9704 18.8842Z" fill="#58504E"/>
<path d="M26.3049 30.3678C27.6779 31.2952 29.5428 30.9339 30.4701 29.5608C31.3974 28.1878 31.0361 26.323 29.6631 25.3957L26.3049 30.3678ZM3.51434 14.9754C7.96447 17.9809 13.6621 21.8291 18.2472 24.9258C20.5398 26.4741 22.5542 27.8347 23.9955 28.8081C24.7161 29.2948 25.2935 29.6847 25.6907 29.953C25.8893 30.0871 26.0428 30.1908 26.1467 30.261C26.1987 30.2961 26.2382 30.3228 26.2648 30.3407C26.2781 30.3497 26.2881 30.3565 26.2948 30.361C26.2982 30.3633 26.3007 30.365 26.3024 30.3661C26.3032 30.3667 26.3038 30.3671 26.3043 30.3674C26.3045 30.3676 26.3046 30.3677 26.3047 30.3677C26.3049 30.3678 26.3049 30.3678 27.984 27.8817C29.6631 25.3957 29.663 25.3956 29.6629 25.3955C29.6628 25.3955 29.6626 25.3954 29.6624 25.3952C29.662 25.395 29.6614 25.3945 29.6605 25.3939C29.6589 25.3928 29.6563 25.3911 29.653 25.3888C29.6463 25.3843 29.6362 25.3775 29.623 25.3686C29.5964 25.3506 29.5569 25.3239 29.5049 25.2888C29.401 25.2186 29.2474 25.1149 29.0488 24.9808C28.6516 24.7125 28.0743 24.3226 27.3536 23.8359C25.9124 22.8625 23.8979 21.5019 21.6054 19.9536C17.0203 16.8569 11.3226 13.0087 6.8725 10.0032L3.51434 14.9754ZM5.19342 12.4893L10.1682 15.8436L5.19342 12.4893ZM48.3006 20.8473C52.1857 32.0679 46.239 44.3134 35.0185 48.1984L38.9447 59.5379C56.4279 53.4845 65.6936 34.4043 59.6402 16.9211L48.3006 20.8473ZM35.0185 48.1984C23.7979 52.0834 11.5524 46.1368 7.66734 34.9162L-3.67219 38.8424C2.38123 56.3257 21.4615 65.5913 38.9447 59.5379L35.0185 48.1984ZM20.9495 7.5651C32.1701 3.68007 44.4156 9.6267 48.3006 20.8473L59.6402 16.9211C53.5867 -0.562159 34.5065 -9.82785 17.0233 -3.77443L20.9495 7.5651ZM7.66734 34.9162C5.36718 28.273 6.50741 21.2728 10.1682 15.8436L0.218653 9.13491C-5.46115 17.5585 -7.25939 28.482 -3.67219 38.8424L7.66734 34.9162ZM10.1682 15.8436C12.6803 12.118 16.3693 9.15096 20.9495 7.5651L17.0233 -3.77443C9.90335 -1.3092 4.13383 3.3284 0.218653 9.13491L10.1682 15.8436Z" fill="black" mask="url(#path-1-inside-1_16_127)"/>
</svg>
